<svg width="537" height="42" viewBox="0 0 537 42" fill="none" xmlns="http://www.w3.org/2000/svg">
<path d="M4.16667 8.33333H8.33333V14.5833H29.1667V8.33333H33.3333V18.75H37.5V8.33333C37.5 6.04167 35.625 4.16667 33.3333 4.16667H24.625C23.75 1.75 21.4583 0 18.75 0C16.0417 0 13.75 1.75 12.875 4.16667H4.16667C1.875 4.16667 0 6.04167 0 8.33333V37.5C0 39.7917 1.875 41.6667 4.16667 41.6667H16.6667V37.5H4.16667V8.33333ZM18.75 4.16667C19.8958 4.16667 20.8333 5.10417 20.8333 6.25C20.8333 7.39583 19.8958 8.33333 18.75 8.33333C17.6042 8.33333 16.6667 7.39583 16.6667 6.25C16.6667 5.10417 17.6042 4.16667 18.75 4.16667Z" fill="#0A5986"/>
<path d="M37.7501 19.9585L26.3126 31.4168L20.0417 25.1668L16.9167 28.2918L26.3126 37.6668L40.8751 23.0835L37.7501 19.9585Z" fill="#0A5986"/>
<path d="M63.2016 4.344V38.136C63.2016 38.872 62.5616 39.24 61.2816 39.24C60.0016 39.24 59.3616 38.872 59.3616 38.136V4.344C59.3616 3.608 60.0016 3.24 61.2816 3.24C62.5616 3.24 63.2016 3.608 63.2016 4.344ZM78.5766 6.84H78.0966V38.136C78.0966 38.872 77.4566 39.24 76.1766 39.24C74.8966 39.24 74.2566 38.872 74.2566 38.136V7.08C74.2566 5.672 74.4166 4.728 74.7366 4.248C75.0886 3.736 75.8886 3.48 77.1366 3.48H78.1926C80.4326 3.48 81.9366 3.736 82.7046 4.248C83.4726 4.76 84.1126 6.04 84.6246 8.088L90.8646 33.288C91.1526 34.44 91.4246 35.16 91.6806 35.448C91.9366 35.736 92.5766 35.88 93.6006 35.88H94.0806V4.584C94.0806 3.848 94.7206 3.48 96.0006 3.48C97.2806 3.48 97.9206 3.848 97.9206 4.584V35.64C97.9206 37.048 97.7446 38.008 97.3926 38.52C97.0726 39 96.2886 39.24 95.0406 39.24H93.9846C91.7446 39.24 90.2406 38.984 89.4726 38.472C88.7046 37.96 88.0646 36.68 87.5526 34.632L81.3126 9.432C81.0246 8.28 80.7526 7.56 80.4966 7.272C80.2406 6.984 79.6006 6.84 78.5766 6.84ZM123.787 38.232C122.763 39.224 120.987 39.72 118.459 39.72C115.931 39.72 114.155 39.224 113.131 38.232C112.107 37.208 111.371 35.512 110.923 33.144L105.739 4.776C105.675 4.456 105.643 4.232 105.643 4.104C105.643 3.528 106.251 3.24 107.467 3.24C108.683 3.24 109.355 3.608 109.483 4.344L114.667 32.616C114.891 33.992 115.243 34.968 115.723 35.544C116.235 36.088 117.147 36.36 118.459 36.36C119.771 36.36 120.667 36.088 121.147 35.544C121.659 34.968 122.027 33.992 122.251 32.616L127.435 4.344C127.563 3.608 128.235 3.24 129.451 3.24C130.667 3.24 131.275 3.528 131.275 4.104C131.275 4.232 131.243 4.456 131.179 4.776L125.995 33.144C125.547 35.512 124.811 37.208 123.787 38.232ZM142.351 26.616V32.616C142.351 35.112 144.607 36.36 149.119 36.36C153.663 36.36 155.935 35.112 155.935 32.616V29.16C155.935 28.424 156.575 28.056 157.855 28.056C159.135 28.056 159.775 28.424 159.775 29.16V32.136C159.775 34.792 158.815 36.728 156.895 37.944C154.975 39.128 152.399 39.72 149.167 39.72C145.967 39.72 143.391 39.128 141.439 37.944C139.487 36.728 138.511 34.792 138.511 32.136V26.616C138.511 23.32 139.919 21.336 142.735 20.664C140.239 19.896 138.991 17.944 138.991 14.808V10.344C138.991 7.688 139.967 5.768 141.919 4.584C143.871 3.368 146.351 2.76 149.359 2.76C152.399 2.76 154.799 3.368 156.559 4.584C158.319 5.8 159.199 7.72 159.199 10.344V11.064C159.199 11.8 158.559 12.168 157.279 12.168C155.999 12.168 155.359 11.8 155.359 11.064V9.864C155.359 7.368 153.263 6.12 149.071 6.12C144.911 6.12 142.831 7.368 142.831 9.864V14.808C142.831 17.624 144.559 19.032 148.015 19.032H151.615C152.255 19.032 152.575 19.592 152.575 20.712C152.575 21.832 152.255 22.392 151.615 22.392H147.535C144.079 22.392 142.351 23.8 142.351 26.616ZM172.233 6.84H171.753V38.136C171.753 38.872 171.113 39.24 169.833 39.24C168.553 39.24 167.913 38.872 167.913 38.136V7.08C167.913 5.672 168.073 4.728 168.393 4.248C168.745 3.736 169.545 3.48 170.793 3.48H171.849C174.089 3.48 175.593 3.736 176.361 4.248C177.129 4.76 177.769 6.04 178.281 8.088L184.521 33.288C184.809 34.44 185.081 35.16 185.337 35.448C185.593 35.736 186.233 35.88 187.257 35.88H187.737V4.584C187.737 3.848 188.377 3.48 189.657 3.48C190.937 3.48 191.577 3.848 191.577 4.584V35.64C191.577 37.048 191.401 38.008 191.049 38.52C190.729 39 189.945 39.24 188.697 39.24H187.641C185.401 39.24 183.897 38.984 183.129 38.472C182.361 37.96 181.721 36.68 181.209 34.632L174.969 9.432C174.681 8.28 174.409 7.56 174.153 7.272C173.897 6.984 173.257 6.84 172.233 6.84ZM198.772 3.48H218.932C219.572 3.48 219.892 4.04 219.892 5.16C219.892 6.28 219.572 6.84 218.932 6.84H210.772V38.136C210.772 38.872 210.132 39.24 208.852 39.24C207.572 39.24 206.932 38.872 206.932 38.136V6.84H198.772C198.132 6.84 197.812 6.28 197.812 5.16C197.812 4.04 198.132 3.48 198.772 3.48ZM247.876 10.344V32.136C247.876 34.792 246.836 36.728 244.756 37.944C242.708 39.128 239.988 39.72 236.596 39.72C229.3 39.72 225.652 37.192 225.652 32.136V10.344C225.652 7.688 226.676 5.768 228.724 4.584C230.804 3.368 233.54 2.76 236.932 2.76C244.228 2.76 247.876 5.288 247.876 10.344ZM229.492 9.864V32.616C229.492 35.112 231.908 36.36 236.74 36.36C241.604 36.36 244.036 35.112 244.036 32.616V9.864C244.036 7.368 241.604 6.12 236.74 6.12C231.908 6.12 229.492 7.368 229.492 9.864ZM264.2 21.24H268.376C272.728 21.24 274.904 19.992 274.904 17.496V9.864C274.904 7.368 272.712 6.12 268.328 6.12C263.976 6.12 261.8 7.368 261.8 9.864V38.136C261.8 38.872 261.16 39.24 259.88 39.24C258.6 39.24 257.96 38.872 257.96 38.136V10.344C257.96 7.688 258.904 5.768 260.792 4.584C262.68 3.368 265.192 2.76 268.328 2.76C271.464 2.76 273.976 3.368 275.864 4.584C277.784 5.768 278.744 7.688 278.744 10.344V17.016C278.744 19.992 277.352 21.848 274.568 22.584C275.304 23.256 275.88 24.344 276.296 25.848C278.568 34.008 279.704 38.184 279.704 38.376C279.704 38.952 279.144 39.24 278.024 39.24C276.904 39.24 276.232 38.872 276.008 38.136L272.984 27.192C272.696 26.072 272.296 25.368 271.784 25.08C271.272 24.76 270.152 24.6 268.424 24.6H264.2C263.56 24.6 263.24 24.04 263.24 22.92C263.24 21.8 263.56 21.24 264.2 21.24ZM299.41 38.136C299.41 38.872 298.77 39.24 297.49 39.24C296.21 39.24 295.57 38.872 295.57 38.136V27.144C293.938 26.888 292.722 26.248 291.922 25.224C291.122 24.2 290.466 22.68 289.954 20.664L286.21 5.88C285.922 4.856 285.778 4.264 285.778 4.104C285.778 3.528 286.37 3.24 287.554 3.24C288.77 3.24 289.458 3.608 289.618 4.344L293.698 20.136C294.05 21.48 294.466 22.44 294.946 23.016C295.458 23.592 296.306 23.88 297.49 23.88C298.674 23.88 299.506 23.592 299.986 23.016C300.498 22.44 300.93 21.48 301.282 20.136L305.362 4.344C305.522 3.608 306.194 3.24 307.378 3.24C308.594 3.24 309.202 3.528 309.202 4.104C309.202 4.264 309.058 4.856 308.77 5.88L305.026 20.664C304.514 22.68 303.858 24.2 303.058 25.224C302.258 26.248 301.042 26.888 299.41 27.144V38.136ZM337.82 9.864V32.616C337.82 35.112 340.156 36.36 344.828 36.36C349.532 36.36 351.884 35.112 351.884 32.616V29.16C351.884 28.424 352.524 28.056 353.804 28.056C355.084 28.056 355.724 28.424 355.724 29.16V32.136C355.724 37.192 352.156 39.72 345.02 39.72C341.692 39.72 339.02 39.128 337.004 37.944C334.988 36.728 333.98 34.792 333.98 32.136V10.344C333.98 7.688 334.988 5.768 337.004 4.584C339.02 3.368 341.692 2.76 345.02 2.76C352.156 2.76 355.724 5.288 355.724 10.344V13.32C355.724 14.056 355.084 14.424 353.804 14.424C352.524 14.424 351.884 14.056 351.884 13.32V9.864C351.884 7.368 349.532 6.12 344.828 6.12C340.156 6.12 337.82 7.368 337.82 9.864ZM386.579 10.344V32.136C386.579 34.792 385.539 36.728 383.459 37.944C381.411 39.128 378.691 39.72 375.299 39.72C368.003 39.72 364.355 37.192 364.355 32.136V10.344C364.355 7.688 365.379 5.768 367.427 4.584C369.507 3.368 372.243 2.76 375.635 2.76C382.931 2.76 386.579 5.288 386.579 10.344ZM368.195 9.864V32.616C368.195 35.112 370.611 36.36 375.443 36.36C380.307 36.36 382.739 35.112 382.739 32.616V9.864C382.739 7.368 380.307 6.12 375.443 6.12C370.611 6.12 368.195 7.368 368.195 9.864ZM400.983 6.84H400.503V38.136C400.503 38.872 399.863 39.24 398.583 39.24C397.303 39.24 396.663 38.872 396.663 38.136V7.08C396.663 5.672 396.823 4.728 397.143 4.248C397.495 3.736 398.295 3.48 399.543 3.48H400.599C402.839 3.48 404.343 3.736 405.111 4.248C405.879 4.76 406.519 6.04 407.031 8.088L413.271 33.288C413.559 34.44 413.831 35.16 414.087 35.448C414.343 35.736 414.983 35.88 416.007 35.88H416.487V4.584C416.487 3.848 417.127 3.48 418.407 3.48C419.687 3.48 420.327 3.848 420.327 4.584V35.64C420.327 37.048 420.151 38.008 419.799 38.52C419.479 39 418.695 39.24 417.447 39.24H416.391C414.151 39.24 412.647 38.984 411.879 38.472C411.111 37.96 410.471 36.68 409.959 34.632L403.719 9.432C403.431 8.28 403.159 7.56 402.903 7.272C402.647 6.984 402.007 6.84 400.983 6.84ZM427.522 3.48H447.682C448.322 3.48 448.642 4.04 448.642 5.16C448.642 6.28 448.322 6.84 447.682 6.84H439.522V38.136C439.522 38.872 438.882 39.24 437.602 39.24C436.322 39.24 435.682 38.872 435.682 38.136V6.84H427.522C426.882 6.84 426.562 6.28 426.562 5.16C426.562 4.04 426.882 3.48 427.522 3.48ZM461.122 21.24H465.298C469.65 21.24 471.826 19.992 471.826 17.496V9.864C471.826 7.368 469.634 6.12 465.25 6.12C460.898 6.12 458.722 7.368 458.722 9.864V38.136C458.722 38.872 458.082 39.24 456.802 39.24C455.522 39.24 454.882 38.872 454.882 38.136V10.344C454.882 7.688 455.826 5.768 457.714 4.584C459.602 3.368 462.114 2.76 465.25 2.76C468.386 2.76 470.898 3.368 472.786 4.584C474.706 5.768 475.666 7.688 475.666 10.344V17.016C475.666 19.992 474.274 21.848 471.49 22.584C472.226 23.256 472.802 24.344 473.218 25.848C475.49 34.008 476.626 38.184 476.626 38.376C476.626 38.952 476.066 39.24 474.946 39.24C473.826 39.24 473.154 38.872 472.93 38.136L469.906 27.192C469.618 26.072 469.218 25.368 468.706 25.08C468.194 24.76 467.074 24.6 465.346 24.6H461.122C460.482 24.6 460.162 24.04 460.162 22.92C460.162 21.8 460.482 21.24 461.122 21.24ZM507.516 10.344V32.136C507.516 34.792 506.476 36.728 504.396 37.944C502.348 39.128 499.628 39.72 496.236 39.72C488.94 39.72 485.292 37.192 485.292 32.136V10.344C485.292 7.688 486.316 5.768 488.364 4.584C490.444 3.368 493.18 2.76 496.572 2.76C503.868 2.76 507.516 5.288 507.516 10.344ZM489.132 9.864V32.616C489.132 35.112 491.548 36.36 496.38 36.36C501.244 36.36 503.676 35.112 503.676 32.616V9.864C503.676 7.368 501.244 6.12 496.38 6.12C491.548 6.12 489.132 7.368 489.132 9.864ZM525.184 35.64H532.96C533.6 35.64 533.92 36.2 533.92 37.32C533.92 38.44 533.6 39 532.96 39H525.184C522.432 39 520.48 38.344 519.328 37.032C518.176 35.688 517.6 33.528 517.6 30.552V4.344C517.6 3.608 518.24 3.24 519.52 3.24C520.8 3.24 521.44 3.608 521.44 4.344V30.552C521.44 32.408 521.712 33.72 522.256 34.488C522.832 35.256 523.808 35.64 525.184 35.64Z" fill="#0A5986"/>
</svg>
